<svg xmlns="http://www.w3.org/2000/svg" width="1200" height="620" viewBox="0 0 1200 620">
<defs>
  <linearGradient id="bg" x1="0" x2="1"><stop stop-color="#07131d"/><stop offset="1" stop-color="#173e53"/></linearGradient>
  <filter id="s"><feDropShadow dx="0" dy="10" stdDeviation="14" flood-opacity=".3"/></filter>
</defs>
<rect width="1200" height="620" rx="28" fill="url(#bg)"/>
<circle cx="1010" cy="120" r="88" fill="#f3c56a" opacity=".9"/>
<g opacity=".18" fill="#fff">
 <rect x="0" y="415" width="100" height="205"/><rect x="115" y="345" width="125" height="275"/>
 <rect x="255" y="390" width="90" height="230"/><rect x="360" y="280" width="130" height="340"/>
 <rect x="505" y="375" width="95" height="245"/><rect x="615" y="315" width="125" height="305"/>
 <rect x="755" y="410" width="100" height="210"/><rect x="870" y="345" width="110" height="275"/>
 <rect x="995" y="395" width="105" height="225"/><rect x="1115" y="330" width="85" height="290"/>
</g>
<g filter="url(#s)">
 <rect x="105" y="110" width="720" height="270" rx="28" fill="#111"/>
 <text x="150" y="180" fill="#fff" font-family="Arial, sans-serif" font-weight="700" font-size="58">42 ST · TIMES SQUARE</text>
 <text x="150" y="240" fill="#d9e4e9" font-family="Arial, sans-serif" font-size="30">Uptown? Downtown? Local? Express?</text>
 <circle cx="170" cy="310" r="34" fill="#ee352e"/><text x="158" y="323" fill="#fff" font-family="Arial" font-weight="700" font-size="35">1</text>
 <circle cx="255" cy="310" r="34" fill="#ee352e"/><text x="244" y="323" fill="#fff" font-family="Arial" font-weight="700" font-size="35">2</text>
 <circle cx="340" cy="310" r="34" fill="#ee352e"/><text x="329" y="323" fill="#fff" font-family="Arial" font-weight="700" font-size="35">3</text>
 <circle cx="425" cy="310" r="34" fill="#fccc0a"/><text x="412" y="323" fill="#111" font-family="Arial" font-weight="700" font-size="31">N</text>
 <circle cx="510" cy="310" r="34" fill="#fccc0a"/><text x="496" y="323" fill="#111" font-family="Arial" font-weight="700" font-size="31">Q</text>
 <circle cx="595" cy="310" r="34" fill="#fccc0a"/><text x="582" y="323" fill="#111" font-family="Arial" font-weight="700" font-size="31">R</text>
 <circle cx="680" cy="310" r="34" fill="#fccc0a"/><text x="666" y="323" fill="#111" font-family="Arial" font-weight="700" font-size="31">W</text>
</g>
<text x="105" y="515" fill="#f3c56a" font-family="Arial, sans-serif" font-weight="700" font-size="34">REAL-LIFE MISSION</text>
<text x="105" y="560" fill="#fff" font-family="Arial, sans-serif" font-size="28">You have 10 seconds to understand the situation — then speak.</text>
</svg>